<svg xmlns="http://www.w3.org/2000/svg" xmlns:xlink="http://www.w3.org/1999/xlink" viewBox="0 0 1024 1024"><defs><style>.cls-1{fill:#ffda00;}.cls-2{fill:#030104;}.cls-3{fill:none;stroke:#030104;stroke-linecap:round;stroke-linejoin:round;stroke-width:19px;}.cls-4{fill:#fcfcfc;}</style><symbol id="Icon" data-name="Icon" viewBox="0 0 1024 1024"><path id="App_Icon_Placeholder" data-name="App Icon Placeholder" class="cls-1" d="M357,0H667C769.8,0,821.18,0,876.52,17.49a217.47,217.47,0,0,1,130,130C1024,202.83,1024,254.22,1024,357V667c0,102.8,0,154.19-17.5,209.53a217.43,217.43,0,0,1-130,130C821.18,1024,769.8,1024,667,1024H357c-102.79,0-154.17,0-209.51-17.5a217.43,217.43,0,0,1-130-130C0,821.18,0,769.79,0,667V357C0,254.22,0,202.83,17.5,147.48a217.47,217.47,0,0,1,130-130C202.82,0,254.2,0,357,0h0"/></symbol></defs><g id="Layer_2" data-name="Layer 2"><g id="App_Icon_Kit_B" data-name="App Icon Kit B"><g id="App_Icon_and_Badge" data-name="App Icon and Badge"><g id="Main"><use width="1024" height="1024" xlink:href="#Icon"/></g></g><circle class="cls-2" cx="534.02" cy="214.58" r="70.16"/><path class="cls-2" d="M439,336.36c2.6-17.81,17.93-54.17,28-51.36l68,31c10.06,2.87,17.2,41.3,14.36,51.44L489.05,615.08c-3,10.17-9,15.2-19.11,12.3l-49.45-10.71c-39.84-32.8-39.61-61.34-31.44-100.74Z"/><path class="cls-2" d="M377,603,361.64,708.61s-32.27,76.63-54.46,121.65c-16.77,34.11-24.67,58.69-13.13,64.84,17.69,9.41,41.47-11.68,66.38-50.52,41.76-65.13,63.26-97.7,71.31-113.52l12.63-41.36C444,665,385.16,630.77,377,603Z"/><path class="cls-2" d="M595.84,657.2l-97.7-97c-15.41-15.53-38.42-8.22-54,7.22s-46,29.81-30.67,45.43L537.72,717.45,524,851.5c-1,33.07.94,52.24,21.94,54.43,19.62,2,28.25-38.75,30.29-49.08,0,0,25.12-128.4,28.16-146.5S609.24,670.89,595.84,657.2Z"/><path class="cls-2" d="M714,369.54l-73.65,34.64-92.79-67.74A33,33,0,0,0,508.88,390L609,462.48c9.4,6.77,23.87,10.32,34.46,5.74,0,0,68.71-41.74,87.14-53.75,19.31-12.66,39.51-29.28,32.06-43.24C752,351.17,732.73,360.49,714,369.54Z"/><line class="cls-3" x1="709.5" y1="310.5" x2="790.5" y2="894.5"/><path class="cls-2" d="M416,323s-43.41,136.7-50.06,158.35S320.8,522,288,512s-104.32-41.67-99-80c5.83-41.77,13.78-166.33,48-202C292.72,141,450.74,220.77,416,323Z"/><path class="cls-2" d="M462.57,222.59c11.54-8.41,23.44-16.13,35.43-23.68s24.15-14.77,36.41-21.81,24.62-13.9,37.1-20.53c3.12-1.65,6.21-3.35,9.36-4.95a88.21,88.21,0,0,1,9.79-4.16,74.22,74.22,0,0,1,10.46-2.87,49.84,49.84,0,0,1,11.45-1,11,11,0,0,1,8.86,16.82,49.7,49.7,0,0,1-7.3,8.87,74.51,74.51,0,0,1-8.29,7,89.87,89.87,0,0,1-9,5.72c-3.1,1.69-6.26,3.27-9.39,4.92q-18.78,9.8-37.9,19C536.85,212,524,218,511,223.59s-26.11,11.06-39.57,15.82a9.61,9.61,0,0,1-8.86-16.82Z"/><polygon class="cls-2" points="597.82 187.42 611.82 209.42 589.57 230.5 597.82 187.42"/><path class="cls-4" d="M290.91,310.51a6.31,6.31,0,0,1-2.3,1.82,3.22,3.22,0,0,1-2.39-.1,6.25,6.25,0,0,1-2.64-2.46c-.85-1.27-1.89-2.72-3.1-4.35a36,36,0,0,0-4.47-4.89,21.29,21.29,0,0,0-6.69-4.08,18.07,18.07,0,0,0-6.68-1.47,11.63,11.63,0,0,0-5.39,1.22,10.59,10.59,0,0,0-4,3.58,17.56,17.56,0,0,0-2.46,5.63,13.59,13.59,0,0,0,.08,7.68,21.09,21.09,0,0,0,3.72,6.71,52.41,52.41,0,0,0,6.08,6.31q3.53,3.12,7.18,6.52a87.85,87.85,0,0,1,7,7.3,36.54,36.54,0,0,1,5.48,8.68,33.07,33.07,0,0,1,2.7,10.67,39.11,39.11,0,0,1-1.35,13.23,47,47,0,0,1-6,14.09,31.12,31.12,0,0,1-9.52,9.59,26.78,26.78,0,0,1-12.37,4,32.41,32.41,0,0,1-14.67-2.6,43,43,0,0,1-8.6-4.66,50.26,50.26,0,0,1-7.58-6.51,54.92,54.92,0,0,1-6.28-7.92,49.65,49.65,0,0,1-4.63-8.87l7.86-8.46a5.31,5.31,0,0,1,2.19-1.24,3.56,3.56,0,0,1,2.41.12,7,7,0,0,1,3.1,3.08c1,1.62,2.16,3.46,3.55,5.52a42.58,42.58,0,0,0,5.15,6.16,23.34,23.34,0,0,0,8,5q7.5,3,12.76.21T264.38,369a15.33,15.33,0,0,0,.09-8.33,20.7,20.7,0,0,0-3.66-6.91,41.48,41.48,0,0,0-6.12-6.19q-3.56-3-7.19-6.22a78.13,78.13,0,0,1-7-7.11,34.12,34.12,0,0,1-5.45-8.75,33.74,33.74,0,0,1-2.57-11.16A45.26,45.26,0,0,1,234.14,300a36.87,36.87,0,0,1,5.29-11.74,29,29,0,0,1,8.75-8.46,25.87,25.87,0,0,1,11.61-3.71,30.38,30.38,0,0,1,13.92,2.43,44.24,44.24,0,0,1,24.23,23.4Z"/></g></g></svg>